<svg xmlns="http://www.w3.org/2000/svg" width="150.03" height="752.026" viewBox="0 0 150.03 752.026">
  <g id="グループ_32" data-name="グループ 32" transform="translate(-223.168 -174.724)">
    <path id="パス_4128" data-name="パス 4128" d="M30.35,22.85A16.744,16.744,0,0,0,23.7,19.9a17.724,17.724,0,0,0-2.35-.35,26.581,26.581,0,0,0-6.9.15.215.215,0,0,1-.2-.2V14.95a.183.183,0,0,1,.2-.2H17.9c5.4,0,7.05-3.45,7.1-3.6.6-1.25-1.25-2-1.85-.85-.05.1-1.25,2.4-5.25,2.4H14.5c-.15,0-.2-.1-.2-.25V8.3a1.4,1.4,0,0,0-2.8,0v4.15a.236.236,0,0,1-.25.25H2.85a1.025,1.025,0,1,0,0,2.05h8.4a.229.229,0,0,1,.25.2V20.1c0,.1-.1.25-.2.25-4.45,1.4-8.95,3.3-11.8,7.3-3.05,4.25-2.4,7.8.3,9.55a7.321,7.321,0,0,0,5.15.65,18.186,18.186,0,0,0,6.6-2.95c.1-.05.25,0,.25.1a7.278,7.278,0,0,0,1.6,3.65c.9,1.35,2.85-.1,2.05-1.5V37.1c-.8-.8-.95-2.3-1.1-3.7a2.242,2.242,0,0,0-.05-.55.454.454,0,0,1,.15-.35A24.61,24.61,0,0,0,20.4,21.7c.15-.25,0-.5.7-.5.75.2,1.45.3,2.15.5a13.113,13.113,0,0,1,5.3,3,8.127,8.127,0,0,1,2.2,6.5,9.7,9.7,0,0,1-.95,3.1,15.336,15.336,0,0,1-4.2,4.65,25.706,25.706,0,0,1-6.9,3.25c-1.25.4-2.55.7-4.05,1.05l-.05.05c-.95.2-.75,1.85.3,1.6a40.588,40.588,0,0,0,4.35-.8,31.888,31.888,0,0,0,7.75-3,18.029,18.029,0,0,0,5.7-5.15,9.768,9.768,0,0,0,1.45-4.35A10.39,10.39,0,0,0,30.35,22.85ZM4.55,35.15c-1.15.2-2.5.3-3.2-.3-1.8-1.5-1.6-3.75-.1-6C3.45,25.5,7.4,23.35,11.3,22c.1-.05.2.05.2.15v9.5c0,.35-.35.5-.6.75A15.856,15.856,0,0,1,4.55,35.15Zm14.1-14a12.788,12.788,0,0,0-.45,1.3,29.828,29.828,0,0,1-3.7,6.7.14.14,0,0,1-.25-.1V21.5c0-.1.05-.25.2-.25A22.042,22.042,0,0,1,18.5,21,.16.16,0,0,1,18.65,21.15ZM33.75,73.4c-3.3-1.65-6.65-3.55-9.1-6.55-.75-.9-2.05.2-1.45,1.15a32.727,32.727,0,0,0,5.6,5.75.412.412,0,0,1-.25.75H26.8c-4.6,0-7.4,1.35-7.4,6.55V89.6a.215.215,0,0,1-.2.2,19.089,19.089,0,0,0-3.85-.3A10.8,10.8,0,0,0,9.1,91.05a4.1,4.1,0,0,0-1.8,3.6,4.288,4.288,0,0,0,2.5,3.3A12.8,12.8,0,0,0,13.3,99a13.131,13.131,0,0,0,3.7-.05,7.349,7.349,0,0,0,3.6-1.65,4.85,4.85,0,0,0,1.25-1.85,5.646,5.646,0,0,0,.45-2.05c.05-.15,0-.3.05-.45,0-.1.1-.15.15-.1a23.185,23.185,0,0,1,6.35,3.9,7.308,7.308,0,0,0,.8.6c1.45,1.1,3.3-1.6,1.6-2.65-.25-.15-.65-.45-.65-.45a38.261,38.261,0,0,0-8.05-3.65.332.332,0,0,1-.2-.25v-9.3c0-3.05.9-4.85,4.5-4.85h6.3a1.543,1.543,0,0,0,.45-.05,1.583,1.583,0,0,0,.95-.85A1.49,1.49,0,0,0,33.75,73.4ZM10.7,70.9c5.4,0,7.05-3.4,7.15-3.55.95-1.25-1.2-2.25-1.9-.9-.05.1-1.2,2.4-5.25,2.4H8.6a.215.215,0,0,1-.2-.2c.2-2.65.3-4.85.3-6.35.1-2.1-3.3-2.1-3.1.05,0,1.45,0,3.45-.15,6.3a.229.229,0,0,1-.25.2H-1.95a1.026,1.026,0,0,0,0,2.05h7c.1,0,.2.1.15.2a29.718,29.718,0,0,1-8.4,17c-1.4,1.4.9,3.5,2.25,2.05C4.15,84.2,7.2,78.7,8.15,71.1a.229.229,0,0,1,.25-.2Zm8.5,23.45c-.3,1.2-1.65,1.7-2.75,1.95a9.268,9.268,0,0,1-5.6-.45c-.85-.35-1.35-.9-1.4-1.4a1.9,1.9,0,0,1,.85-1.75,9.541,9.541,0,0,1,5.1-1.25,18.335,18.335,0,0,1,3.75.4c.1,0,.2.15.2.25A9.124,9.124,0,0,1,19.2,94.35ZM9.6,125.5c-.15,0-.2-.1-.2-.25.05-1.5.15-3,.15-4.5v-1.6c0-2.15-3.35-2.1-3.35.05,0,.55.05,1.55.05,1.55,0,1.5,0,3-.05,4.5a.236.236,0,0,1-.25.25H-1.4a.9.9,0,1,0,0,1.8H5.9a.229.229,0,0,1,.2.25,45.623,45.623,0,0,1-1.45,9.25,43.206,43.206,0,0,1-7.5,14.7l-.05.05c-1.25,1.6,1.35,3.55,2.55,1.85A51.332,51.332,0,0,0,7.5,137.5a48.866,48.866,0,0,0,1.75-9.95.229.229,0,0,1,.2-.25H16.2a.9.9,0,0,0,0-1.8ZM32.3,150a.049.049,0,0,1-.05-.05H31.9c-2.6.05-8.35.45-10.7-1.5-2.55-2.1-1.8-5.8-.1-8.1,2.5-3.4,5.85-5.8,9.1-8.15.9-.65,2.65-1.75,1.25-3.05-2.85-2.8-7.2-3.45-11-3.55a.88.88,0,0,0-.15,1.75,15.505,15.505,0,0,1,8.2,3.1.8.8,0,0,1,0,1.25c-.7.5-1.95,1.4-2.85,2.1-3.55,2.75-7.5,6-8.15,10.85a6.642,6.642,0,0,0,3.65,7.15c2.45,1.2,5.5,1.35,8.15,1.35.95,0,2.45.2,3.35-.25A1.575,1.575,0,0,0,32.3,150Zm1.55,40.95a16.877,16.877,0,0,0-4.2-9.9,16.021,16.021,0,0,0-10.1-4.9,22.747,22.747,0,0,0-11.35,1.4,19.472,19.472,0,0,0-10.95,10.5c-1.75,4.1-2.15,10.6,2.15,13.35,4.8,3.1,9.9-1.05,12.5-5.05a28.664,28.664,0,0,0,4.25-13.95,34.563,34.563,0,0,0,.05-3.85v-.6a.215.215,0,0,1,.2-.2,13.731,13.731,0,0,1,2.85.25,13.783,13.783,0,0,1,8.4,4.75,14.51,14.51,0,0,1,2.95,8.35,15.142,15.142,0,0,1-1.95,7.65,14.787,14.787,0,0,1-4.85,4.8,24.948,24.948,0,0,1-9.9,3.3c-1.05.1-.85,1.75.2,1.65,4.85-.5,8-1.35,10.9-2.9a17.569,17.569,0,0,0,6.15-5.3,14.247,14.247,0,0,0,2.7-9.25ZM14.1,178.55c-.05.85-.05,2.05-.2,3.65a27.519,27.519,0,0,1-3.6,11.3c-1.6,2.6-4.35,6.35-7.9,5.75-3.6-.7-3.65-5.3-3.1-8.15,1.15-5.4,5.2-9.5,9.7-11.75a18.449,18.449,0,0,1,4.9-1.45.215.215,0,0,1,.2.2Zm6.35,48.95a14.5,14.5,0,0,0,1.05-2.35c1.45-.25,2.15-.6,2.15-.95,0-.55-1.2-1.1-3.6-1.7-.55-.15-.9.05-1,.55a29.53,29.53,0,0,1-6.2,11.1c-.35.4-.45.7-.2.9a.725.725,0,0,0,1.05.05,23.487,23.487,0,0,0,6-6.35h1.9a8.574,8.574,0,0,1,2.85,4.9c.15,1.2.65,1.8,1.45,1.8a1.607,1.607,0,0,0,1.85-1.8c0-1.85-1.35-3.45-4.05-4.9H35.75a.92.92,0,0,0,.8-.3.784.784,0,0,0-.1-1.1,30.078,30.078,0,0,0-2.1-2.3.682.682,0,0,0-1.1.1l-1.8,2.35Zm-18.6,0q.45-.9,1.05-2.4c1.4-.25,2.1-.6,2.1-1,0-.65-1.25-1.2-3.7-1.75-.55-.1-.9.1-1,.6a33.294,33.294,0,0,1-7.7,13.6c-.35.35-.45.65-.25.85a.746.746,0,0,0,1.1.1,29.376,29.376,0,0,0,7.7-8.75h.9A9.056,9.056,0,0,1,4.8,233.8c.2,1.1.75,1.7,1.45,1.7A1.613,1.613,0,0,0,8,233.65c0-1.75-1.35-3.4-4-4.9h9.75a.975.975,0,0,0,.85-.35.784.784,0,0,0,0-1.1,25.154,25.154,0,0,0-1.75-2.15.653.653,0,0,0-1.1.05l-1.8,2.3ZM.4,250.95c.45-1.45,1-3.45,1.6-5.95H13.75v5.95Zm16.25-7.2V237.8h12.4v5.95Zm12.4,2.65c0,.55.25.8.75.8h1.3a.694.694,0,0,0,.8-.8v-7.75l1.3-.8a.6.6,0,0,0,.3-.45c0-.5-.8-1.35-2.35-2.55a.8.8,0,0,0-1.15.1l-1.35,1.6H-1.9c-.6,0-.9.25-.75.65a.875.875,0,0,0,.9.6h15.5v5.95H2.95c-.7-.4-1.6-.85-2.55-1.35-.55-.25-.95-.05-1,.5a71.835,71.835,0,0,1-3.25,11.4c-.15.5,0,.85.5.95l1.4.4a.792.792,0,0,0,1-.55c.3-.75.6-1.75.95-2.9H12.15a51.656,51.656,0,0,1-19,12.7c-.55.15-.75.5-.5.85a.95.95,0,0,0,1.05.35,50.1,50.1,0,0,0,20.05-11.4v12.15a.663.663,0,0,0,.75.75h1.4a.663.663,0,0,0,.75-.75V252.2h15.2a23.339,23.339,0,0,1-.8,5.85,3.148,3.148,0,0,1-3.25,2.2,62.54,62.54,0,0,1-6.95-.45c-.55-.05-.85.1-.85.5a.763.763,0,0,0,.75.85,46.6,46.6,0,0,1,5,1.05,2.588,2.588,0,0,1,1.7,1.4.875.875,0,0,0,.9.65,6.033,6.033,0,0,0,3.85-1.6c1.4-1.4,2.25-4.6,2.5-9.6l1.15-.65c.3-.2.5-.4.5-.6,0-.4-.8-1.3-2.4-2.6a.7.7,0,0,0-1.15.05l-1.4,1.7H16.65V245h12.4Zm-34.3,52.4c-.6,0-.85.3-.7.7a.8.8,0,0,0,.9.65H35a.845.845,0,0,0,.85-.4.9.9,0,0,0-.05-1.1,42.425,42.425,0,0,0-3-3,.684.684,0,0,0-1.1.1l-2.55,3.05Zm39.1,57.15a16.877,16.877,0,0,0-4.2-9.9,16.021,16.021,0,0,0-10.1-4.9,22.747,22.747,0,0,0-11.35,1.4,19.473,19.473,0,0,0-10.95,10.5c-1.75,4.1-2.15,10.6,2.15,13.35,4.8,3.1,9.9-1.05,12.5-5.05a28.664,28.664,0,0,0,4.25-13.95,34.564,34.564,0,0,0,.05-3.85v-.6a.215.215,0,0,1,.2-.2,13.73,13.73,0,0,1,2.85.25,13.783,13.783,0,0,1,8.4,4.75,14.51,14.51,0,0,1,2.95,8.35,15.142,15.142,0,0,1-1.95,7.65,14.786,14.786,0,0,1-4.85,4.8,24.948,24.948,0,0,1-9.9,3.3c-1.05.1-.85,1.75.2,1.65,4.85-.5,8-1.35,10.9-2.9a17.569,17.569,0,0,0,6.15-5.3,14.247,14.247,0,0,0,2.7-9.25ZM14.1,343.55c-.05.85-.05,2.05-.2,3.65a27.519,27.519,0,0,1-3.6,11.3c-1.6,2.6-4.35,6.35-7.9,5.75-3.6-.7-3.65-5.3-3.1-8.15,1.15-5.4,5.2-9.5,9.7-11.75a18.449,18.449,0,0,1,4.9-1.45.215.215,0,0,1,.2.2ZM1.05,431.8a.736.736,0,0,0,.8.8H3.1a.7.7,0,0,0,.75-.8V407.05A20.469,20.469,0,0,1,8.5,414.1c.4,1.15.95,1.75,1.65,1.75,1.1,0,1.7-.6,1.7-1.8,0-2.65-2.7-5.5-8-8.55v-5.45h7.9a.885.885,0,0,0,.85-.4.9.9,0,0,0-.1-1.05,23.212,23.212,0,0,0-2.1-2.5.617.617,0,0,0-1.1.05L7.5,398.8H3.85v-8.45c1.4-.55,2.05-1,2.05-1.4,0-.6-1.3-.95-4-1.1a.7.7,0,0,0-.85.75v10.2H-6.5c-.6,0-.9.25-.75.65a.915.915,0,0,0,.9.6H.8l-.15.6a68.128,68.128,0,0,1-8.3,20.55c-.25.45-.25.75.05,1,.4.35.75.3,1.1-.15A53.906,53.906,0,0,0,1.05,408Zm16.65-4.2V416.4H31.8v11.2Zm0-24.05V393.4H31.8v10.15Zm14.1,11.6H17.7v-10.3H31.8Zm-13.65-23a26.688,26.688,0,0,0-2.5-1.15c-.55-.25-.9,0-.9.6v40.05a.714.714,0,0,0,.8.8h1.4a.7.7,0,0,0,.75-.8v-2.8H31.8v2.8a.714.714,0,0,0,.8.8h1.3a.714.714,0,0,0,.8-.8V394.4l1.35-1a.6.6,0,0,0,.3-.45c0-.4-.75-1.3-2.4-2.7a.68.68,0,0,0-1.1.1l-1.45,1.8Zm-7.35,62c.45,0,.7-.1.8-.35a.832.832,0,0,0-.1-1.05,29.48,29.48,0,0,0-2.15-2.3.677.677,0,0,0-1.1.05l-2,2.4H-6.7c-.55,0-.85.25-.75.6a.861.861,0,0,0,.9.65Zm-2.4,12.5a1,1,0,0,0,.85-.4.784.784,0,0,0,0-1.1,23.674,23.674,0,0,0-1.9-2.05c-.4-.4-.8-.4-1.1.05L4.4,465.4H-4.3c-.55,0-.85.25-.7.6a.828.828,0,0,0,.9.65Zm-.25-18.8a.826.826,0,0,0,.8-.35.77.77,0,0,0-.1-1.05,16.234,16.234,0,0,0-2.05-2.2.659.659,0,0,0-1.1.1L3.85,446.6H-3.5c-.55,0-.85.2-.75.6a.857.857,0,0,0,.85.65ZM8.5,460.4a.92.92,0,0,0,.8-.3.836.836,0,0,0-.05-1.1,25.275,25.275,0,0,0-1.95-2.15c-.4-.4-.8-.4-1.1.05l-1.85,2.25H-4.3c-.55,0-.85.25-.7.6a.828.828,0,0,0,.9.65Zm3.9,18c.9,0,1.8-.65,2.7-2,1.2-1.85,1.9-4.5,2.15-7.95a.734.734,0,0,0-.45-.85c-.5-.1-.8.1-.9.65-.75,3.15-2.05,5.4-3.85,6.7-.9.7-1.35,1.25-1.35,1.7A1.525,1.525,0,0,0,12.4,478.4Zm.85-20.5c.85,0,1.65-.65,2.35-1.85A12.572,12.572,0,0,0,17,449.8a10.626,10.626,0,0,0-.1-1.65c-.05-.5-.2-.7-.4-.75a.7.7,0,0,0-.9.7c-.35,2.9-1.3,5.1-2.9,6.5-.75.65-1.1,1.2-1.1,1.7A1.443,1.443,0,0,0,13.25,457.9Zm-15.4,15.15H5.2v10.1H-2.15ZM5.2,484.4v1.65a.7.7,0,0,0,.75.8h1.2a.714.714,0,0,0,.8-.8V474l1.1-.8a.757.757,0,0,0,.35-.55c0-.45-.75-1.25-2.25-2.5a.653.653,0,0,0-1.1.05L4.8,471.8H-1.6c-.75-.4-1.55-.85-2.4-1.25-.6-.25-.95,0-.95.6V486.8a.714.714,0,0,0,.8.8H-2.9a.7.7,0,0,0,.75-.8v-2.4Zm21.05-29.95a11.776,11.776,0,0,1-2.2-4.9V445.3c1.2-.45,1.8-.9,1.8-1.3q0-.9-3.75-1.2a.7.7,0,0,0-.85.75v6.65c0,7-3.45,12.25-10.3,15.8-.45.3-.65.55-.45.85a.824.824,0,0,0,1.05.35c7.5-2.75,11.6-7.55,12.35-14.5,1.35,4.6,4.9,8.65,10.6,12.15a.761.761,0,0,0,1.1-.25,8.776,8.776,0,0,1,1.2-1.5c.4-.45.35-.85-.2-1.05a27.793,27.793,0,0,1-9.65-6.7,44.06,44.06,0,0,0,6.4-6.15,4.042,4.042,0,0,0,.8.05c.95,0,1.4-.15,1.4-.55,0-.5-.95-1.4-2.9-2.75a.649.649,0,0,0-1.1.25A57.219,57.219,0,0,1,26.25,454.45Zm-.55,21.2a15.333,15.333,0,0,1-1.75-7.45v-3.9c1.25-.45,1.85-.85,1.85-1.25,0-.6-1.3-.95-3.8-1.15a.7.7,0,0,0-.85.75v6.65A19.274,19.274,0,0,1,19.3,478c-1.75,3.45-4.9,6.2-9.45,8.3q-.75.375-.45.9a.824.824,0,0,0,1.05.35c7.55-2.65,11.9-7.3,13.15-13.95a17.165,17.165,0,0,0,3.45,7.45A21.418,21.418,0,0,0,35,486.6a.769.769,0,0,0,1.1-.35,17,17,0,0,1,1.15-1.5c.45-.45.35-.8-.25-1-4.95-1.75-8.45-4.05-10.55-7a47.346,47.346,0,0,0,7.4-6.6c1.35,0,2-.2,2-.6,0-.55-.95-1.4-2.8-2.55a.732.732,0,0,0-1.1.3A47.241,47.241,0,0,1,25.7,475.65ZM1.05,541.8a.736.736,0,0,0,.8.8H3.1a.7.7,0,0,0,.75-.8V517.05A20.47,20.47,0,0,1,8.5,524.1c.4,1.15.95,1.75,1.65,1.75,1.1,0,1.7-.6,1.7-1.8,0-2.65-2.7-5.5-8-8.55v-5.45h7.9a.885.885,0,0,0,.85-.4.9.9,0,0,0-.1-1.05,23.212,23.212,0,0,0-2.1-2.5.617.617,0,0,0-1.1.05L7.5,508.8H3.85v-8.45c1.4-.55,2.05-1,2.05-1.4,0-.6-1.3-.95-4-1.1a.7.7,0,0,0-.85.75v10.2H-6.5c-.6,0-.9.25-.75.65a.915.915,0,0,0,.9.6H.8l-.15.6a68.128,68.128,0,0,1-8.3,20.55c-.25.45-.25.75.05,1,.4.35.75.3,1.1-.15A53.906,53.906,0,0,0,1.05,518Zm16.65-4.2V526.4H31.8v11.2Zm0-24.05V503.4H31.8v10.15Zm14.1,11.6H17.7v-10.3H31.8Zm-13.65-23a26.688,26.688,0,0,0-2.5-1.15c-.55-.25-.9,0-.9.6v40.05a.714.714,0,0,0,.8.8h1.4a.7.7,0,0,0,.75-.8v-2.8H31.8v2.8a.714.714,0,0,0,.8.8h1.3a.714.714,0,0,0,.8-.8V504.4l1.35-1a.6.6,0,0,0,.3-.45c0-.4-.75-1.3-2.4-2.7a.68.68,0,0,0-1.1.1l-1.45,1.8Zm15.1,67.95a.872.872,0,0,0,.9-.45.912.912,0,0,0-.15-1.1c-.85-1-1.7-1.9-2.45-2.7a.68.68,0,0,0-1.1.1l-2.2,2.9H16.7V559.5c3.7-.5,7.25-1.2,10.65-2a17.256,17.256,0,0,0,2,.25c.75,0,1.1-.15,1.1-.5,0-.6-1.05-1.55-3.15-2.8a1.14,1.14,0,0,0-1.05-.1q-11.025,3.975-28.95,6c-.55.05-.8.35-.65.7a.86.86,0,0,0,.95.6c6.25-.5,11.6-1.05,16.05-1.7v8.9H-3.5c-.55,0-.85.25-.7.65a.856.856,0,0,0,.9.6H13.65v8.7h-20c-.55,0-.85.25-.7.65a.916.916,0,0,0,.9.6h19.8V590.7c0,1.1-.6,1.6-1.85,1.6-2.1,0-4.65-.15-7.6-.45-.55-.05-.85.1-.85.55a.789.789,0,0,0,.75.85,42.463,42.463,0,0,1,4.95,1.05,2.8,2.8,0,0,1,1.9,1.75c.15.45.35.7.85.7,3.25-.1,4.9-1.35,4.9-3.65V580.05H36.35a1.009,1.009,0,0,0,.9-.45.836.836,0,0,0-.05-1.1,25.016,25.016,0,0,0-2.75-2.95.682.682,0,0,0-1.1.1l-2.3,3.15H16.7v-8.7Z" transform="translate(231 330)" fill="#707070"/>
    <path id="パス_4127" data-name="パス 4127" d="M8.4,56.6a.933.933,0,0,0,1.2.36,40.41,40.41,0,0,0,12.84-6.6,4.553,4.553,0,0,0,.96.06c1.14,0,1.68-.18,1.68-.72,0-.66-1.14-1.56-3.42-2.76a1.1,1.1,0,0,0-1.38.24,34.39,34.39,0,0,1-11.4,8.34C8.28,55.82,8.1,56.24,8.4,56.6ZM-10.98,8.72c-.72,0-1.08.3-.84.78a1.049,1.049,0,0,0,1.08.72H11.58c.54,0,.9-.18,1.02-.54a1.18,1.18,0,0,0-.12-1.32c-.9-.96-1.68-1.86-2.46-2.64a.815.815,0,0,0-1.32.12L6.54,8.72ZM28.8,47.24c-.24.36-.06.78.54,1.02a28.218,28.218,0,0,1,8.94,6.48c.9,1.02,1.68,1.56,2.22,1.56,1.26,0,1.92-.72,1.92-2.16,0-.9-.78-1.92-2.4-3.06A32.636,32.636,0,0,0,30,46.82,1.025,1.025,0,0,0,28.8,47.24ZM-8.4,36.98c-.36.3-.3.72.06,1.2A13.62,13.62,0,0,1-5.4,45.02c.12,1.68.72,2.46,1.68,2.46,1.44,0,2.16-.78,2.16-2.4,0-2.76-1.92-5.46-5.64-8.1A.9.9,0,0,0-8.4,36.98ZM1.68,47.72c-4.2.96-8.4,1.8-12.78,2.46a.8.8,0,0,0-.72,1.14c.9,2.94,1.68,4.38,2.4,4.38.48,0,.84-.72,1.14-2.28A207.86,207.86,0,0,0,12.54,46.4q.72-.36.72-.9c-.12-.72-.54-.96-1.14-.72C9,45.8,6.24,46.64,3.9,47.18a67.927,67.927,0,0,0,4.08-7.86c1.5-.06,2.28-.36,2.28-.9,0-.78-1.38-1.68-4.02-2.64-.66-.24-1.14,0-1.26.66A76.908,76.908,0,0,1,1.68,47.72Zm4.86-27.9V30.38H-5.7V19.82Zm-11.82-1.5A27.944,27.944,0,0,0-7.98,17c-.66-.3-1.08,0-1.08.72v16.5a.8.8,0,0,0,.9.9h1.5a.84.84,0,0,0,.96-.9V31.88H6.54v1.8a.856.856,0,0,0,.96.96H9a.856.856,0,0,0,.96-.96V20.78l1.26-.9a.948.948,0,0,0,.48-.72c0-.42-.9-1.38-2.64-2.82a.842.842,0,0,0-1.38.06l-1.5,1.92ZM19.56,26.6H34.98v7.08H19.56Zm0,8.58H34.98V42.8H19.56ZM34.98,18.86V25.1H19.56V18.86ZM20.1,17.36c-.96-.54-1.92-.96-2.82-1.38-.66-.3-1.08.06-1.08.78V45.62c0,.66.3.96.9.96h1.5a.856.856,0,0,0,.96-.96V44.3H34.98v1.2a.8.8,0,0,0,.9.9h1.5a.84.84,0,0,0,.96-.9V19.94l1.5-1.02a.846.846,0,0,0,.48-.72c0-.48-.96-1.5-2.94-3.06a.815.815,0,0,0-1.32.12l-1.62,2.1H25.68a66.461,66.461,0,0,0,4.14-7.68H40.98c.54,0,.84-.12.96-.42A.93.93,0,0,0,41.82,8a26.827,26.827,0,0,0-2.76-3,.793.793,0,0,0-1.32.18l-2.4,3H15.42c-.72,0-1.08.3-.84.78a1.1,1.1,0,0,0,1.08.72h9.42a60.788,60.788,0,0,1-1.32,7.68ZM-11.16,70.74c-.36.3-.36.72-.06,1.2a23.816,23.816,0,0,1,2.82,8.7c.12,1.26.72,1.92,1.68,1.92,1.56,0,2.34-.84,2.34-2.58,0-2.88-1.86-5.94-5.58-9.12C-10.44,70.44-10.86,70.44-11.16,70.74ZM1.5,66.72a20.22,20.22,0,0,0-2.94-1.38c-.66-.3-1.08,0-1.08.72v17.7c0,.66-.06,1.5-.12,2.4a55.18,55.18,0,0,1-9.78,5.58.885.885,0,0,0-.42,1.32c1.14,2.52,1.98,3.84,2.64,3.84.48,0,.84-.84,1.02-2.52A42.831,42.831,0,0,0-3.3,89.1l.54-.54c-.78,9.18-3.48,16.56-8.28,22.08-.42.48-.42.9-.12,1.2.48.36.9.42,1.32,0C-2.64,105.78.9,96.9.9,85.08V68.22H40.5a1.049,1.049,0,0,0,.96-.42,1.1,1.1,0,0,0-.18-1.32,34,34,0,0,0-2.76-2.94.763.763,0,0,0-1.32.12l-2.46,3.06H19.56v-5.1c1.68-.54,2.46-1.08,2.46-1.56,0-.72-1.62-1.2-4.8-1.44-.72-.06-1.02.3-1.02.9v7.2ZM19.2,97.98H8.82V91.62H19.2Zm3.36-7.86v-6h11.4v6Zm0,7.86V91.62h11.4v6.36ZM19.2,84.12v6H8.82v-6Zm4.62-1.5a1.791,1.791,0,0,0,.6-1.32c0-.72-.48-1.38-1.44-2.04a88.622,88.622,0,0,0,9.3-4.2l1.86-.36c.6-.12.9-.36.9-.66,0-.48-1.14-1.56-3.3-3.3a.96.96,0,0,0-1.38.06L28.8,72.36H7.32c-.72,0-1.08.36-.84.84a1.128,1.128,0,0,0,1.14.66H28.38a37.367,37.367,0,0,1-7.02,4.44,33.127,33.127,0,0,0-7.62-2.16c-.54-.12-.9-.06-.96.12a.806.806,0,0,0,.42,1.26,22.159,22.159,0,0,1,7.68,4.5l.6.6H9.36c-1.14-.54-2.1-.9-2.82-1.2-.66-.24-1.08.12-1.08.78v29.16a.883.883,0,0,0,.96.96h1.5a.84.84,0,0,0,.9-.96V99.48H19.2v10.38a.84.84,0,0,0,.96.9h1.5a.8.8,0,0,0,.9-.9V99.48h11.4v5.82q0,1.62-1.8,1.62c-1.62,0-3.48-.12-5.58-.3-.66-.06-1.02.12-1.02.6a.9.9,0,0,0,.9.96,30.684,30.684,0,0,1,3.6.9,2.406,2.406,0,0,1,1.68,1.62c.18.54.48.9,1.02.84,3.06-.18,4.56-1.74,4.56-4.68V85.2l1.5-.96a.841.841,0,0,0,.48-.66c0-.42-.9-1.38-2.88-2.88a.891.891,0,0,0-1.32.12l-1.56,1.8ZM15,135.88a4.131,4.131,0,0,0-2.46.78,4.084,4.084,0,0,0-1.86,3.54,4.327,4.327,0,0,0,1.56,3.3A4.126,4.126,0,0,0,15,144.52a4.214,4.214,0,0,0,3.72-2.04,4.474,4.474,0,0,0,.6-2.28,4.077,4.077,0,0,0-1.2-2.94A4.283,4.283,0,0,0,15,135.88Zm-3.12,51.7a35.219,35.219,0,0,1-4.98,13.2.268.268,0,0,1-.3,0,28.981,28.981,0,0,1-4.2-7.2.371.371,0,0,1,.12-.42,33.006,33.006,0,0,1,9.06-5.82C11.76,187.34,11.88,187.4,11.88,187.58Zm-7.26,15.9a14.041,14.041,0,0,1-5.46,3.84c-3.3,1.02-4.92-.78-3.48-4.44a22.26,22.26,0,0,1,4.26-7.02c.06-.12.24-.06.36.06a35.261,35.261,0,0,0,4.32,7.2A.382.382,0,0,1,4.62,203.48Zm33.84-8.94a14.711,14.711,0,0,0-7.8-9.6,22.03,22.03,0,0,0-14.82-1.08c-.12,0-.24-.06-.18-.18a2.921,2.921,0,0,1,.06-.72c.18-1.98.3-3.9.3-6.06,0-2.46-4.08-2.28-3.84.24.06.48.12,1.44.12,1.44a25.669,25.669,0,0,1-.12,6.06.405.405,0,0,1-.24.36,35.2,35.2,0,0,0-10.32,5.58c-.12.12-.24.06-.3-.06-.48-1.62-.84-3.3-1.26-5.04v-.06a1.508,1.508,0,0,0-2.94.66,46.187,46.187,0,0,0,1.8,6.42.506.506,0,0,1-.12.42c-3.18,3.24-6.42,7.32-7.08,12.12-.3,4.98,4.2,6.3,8.34,4.68a14.421,14.421,0,0,0,6.12-4.38.492.492,0,0,1,.42,0,24.982,24.982,0,0,0,4.5,3.84,1.507,1.507,0,0,0,1.74-2.46,28.388,28.388,0,0,1-4.26-3.66c-.12-.06-.12-.24,0-.36a36.717,36.717,0,0,0,6.72-16.32.275.275,0,0,1,.24-.3c4.38-1.14,9.42-1.02,13.62,1.44a12.251,12.251,0,0,1,5.58,7.98,17.456,17.456,0,0,1-.66,8.82c-1.98,6.24-7.56,10.32-13.98,12.9l-.06.06c-1.14.42-.42,2.34.78,1.92,6.78-2.46,13.56-6.48,16.8-13.62A16.938,16.938,0,0,0,38.46,194.54Zm-11.52,54.4c6.48,0,8.46-4.14,8.52-4.26a1.234,1.234,0,0,0-2.22-1.08c-.06.12-1.5,2.88-6.3,2.88H19.92a.274.274,0,0,1-.3-.24V228.9a1.8,1.8,0,1,0-3.6.06V246.3a.258.258,0,0,1-.24.24H6.12a.306.306,0,0,1-.06-.6c2.94-1.26,6.6-2.76,7.14-7.02,1.2-7.5-10.38-7.08-14.58-6.66-1.74.18-1.56,3.12.18,3,1.98-.12,12.48-1.2,11.94,3.42-.42,4.44-8.76,6.96-11.88,7.74a1.265,1.265,0,0,0,.12,2.52h16.8a.258.258,0,0,1,.24.24v12.96c0,.12-.12.24-.24.18-4.86-.72-9.9-1.38-14.1.36-2.76,1.2-5.04,3.6-3.96,6.84.9,2.58,3.72,3.72,6.18,4.32a17.315,17.315,0,0,0,4.98.42c3.48-.12,8.04-.84,9.84-4.5a8.709,8.709,0,0,0,.84-3.54c0-.12.18-.18.3-.12,5.34,1.86,7.32,3.48,10.86,5.46,2.28,1.14,4.14-2.34,1.86-3.48a45.186,45.186,0,0,0-12.72-4.8.4.4,0,0,1-.24-.3v-13.8a.274.274,0,0,1,.3-.24Zm-11.4,19.32c-1.08,2.28-4.38,3.06-6.78,3.24-2.82.24-6.06-.18-7.98-1.74-1.62-1.38-.84-3.6.78-4.62a9.9,9.9,0,0,1,5.1-1.26,37.84,37.84,0,0,1,9.06,1.14c.18,0,.24.12.24.3A8.464,8.464,0,0,1,15.54,268.26Zm23.52,46.3c0-6.3-3.72-16.98-11.46-18.3-6.12-1.02-11.64,3.06-14.58,8.34a71.939,71.939,0,0,0-5.34,12.3c-.3.9-.96,2.88-2.04,3.06-1.5.18-2.94-1.74-3.66-2.76-3.24-4.56-3.42-10.5-3.42-15.9,0-2.28.54-5.16-.84-7.2-1.2-1.68-3.18-1.92-5.1-1.92a1.14,1.14,0,0,0,0,2.28c1.98-.18,2.04,1.86,2.04,3.24.06,5.22-.18,10.5,1.38,15.54,1.08,3.42,5.4,11.94,10.2,10.2,1.74-.6,2.58-2.52,3.12-4.08.84-2.22,1.5-4.5,2.28-6.78,1.8-5.22,4.14-10.68,9.06-12.96a8.684,8.684,0,0,1,11.22,3.24c2.34,3.48,2.34,7.98,2.64,12.06C34.86,317.8,39.3,317.56,39.06,314.56ZM15,355.88a4.131,4.131,0,0,0-2.46.78,4.084,4.084,0,0,0-1.86,3.54,4.327,4.327,0,0,0,1.56,3.3A4.126,4.126,0,0,0,15,364.52a4.214,4.214,0,0,0,3.72-2.04,4.474,4.474,0,0,0,.6-2.28,4.077,4.077,0,0,0-1.2-2.94A4.283,4.283,0,0,0,15,355.88ZM8.82,404.1a1.1,1.1,0,0,0,.96-.36,1.08,1.08,0,0,0,0-1.32c-.72-1.02-1.38-1.92-2.1-2.82a.741.741,0,0,0-1.32.06L4.38,402.6H1.26V391.62c1.56-.66,2.34-1.2,2.34-1.74,0-.72-1.62-1.2-4.8-1.32a.814.814,0,0,0-.96.9V402.6H-6.72c.36-1.98.6-4.56.84-7.74,1.32-.48,1.98-.9,1.98-1.38,0-.72-1.44-1.2-4.38-1.44a.836.836,0,0,0-1.02.9,91.559,91.559,0,0,1-2.76,22.68c-.18.54-.06.9.3,1.08a.886.886,0,0,0,1.2-.54,54.827,54.827,0,0,0,3.6-12.06h4.8v15.12c-3,.72-6.12,1.32-9.3,1.86a.774.774,0,0,0-.72,1.14q1.26,4.14,2.34,4.14c.48,0,.84-.72,1.02-2.16q3.15-.9,6.48-1.98v19.2c0,.6.3.9.96.9H.12c.66,0,.96-.3.96-.9v-20.4l.36-.18q3.15-1.17,8.46-3.24c.54-.24.78-.54.72-.84a.808.808,0,0,0-1.14-.72c-2.34.72-5.04,1.56-8.22,2.34V404.1Zm26.94-1.74c-.06,16.08-.9,26.76-2.52,31.98-.54,1.74-1.92,2.64-4.14,2.64a63.215,63.215,0,0,1-7.56-.6c-.66-.12-1.02.12-1.02.6a.979.979,0,0,0,.84,1.02,28.547,28.547,0,0,1,5.46,1.38,2.916,2.916,0,0,1,1.86,1.68c.18.6.42.9,1.02.84a6.608,6.608,0,0,0,6.48-4.44q2.88-7.65,2.94-33.96l1.38-.78c.42-.24.66-.54.66-.84q0-.9-2.88-3.24a.849.849,0,0,0-1.38.18l-1.56,2.04H15.72a65.695,65.695,0,0,0,2.88-8.94c1.5-.36,2.28-.78,2.28-1.26,0-.78-1.5-1.44-4.56-2.1a.9.9,0,0,0-1.14.78,60.575,60.575,0,0,1-8.64,24.12c-.3.54-.3.9.06,1.14a.843.843,0,0,0,1.26-.24,48.2,48.2,0,0,0,7.26-12h4.86Q16.56,417.57,5.94,427.2c-.48.48-.6.78-.3,1.08a.853.853,0,0,0,1.32.12q12.78-9.54,16.5-26.04h4.56Q24.6,426.3,7.92,438.84c-.54.42-.66.78-.36,1.14a.9.9,0,0,0,1.32.12A45.572,45.572,0,0,0,26.4,420.78a66.58,66.58,0,0,0,5.04-18.42ZM27.3,483.64c-.48-.18-.84.18-.9.84-.54,4.32-1.38,6.72-2.34,7.14q-1.17.54-9,.54a32.247,32.247,0,0,1-6.48-.36,1.815,1.815,0,0,1-1.2-1.98V479.26c1.68-.6,2.52-1.2,2.52-1.68,0-.78-1.62-1.26-4.86-1.5a.836.836,0,0,0-1.02.9v14.04c0,1.86.48,3.06,1.5,3.6.9.48,4.26.72,10.14.72,6.48,0,10.44-.12,11.88-.42a3.011,3.011,0,0,0,2.76-2.46c.12-.6-.24-.84-.78-1.08a1.446,1.446,0,0,1-.84-.84c-.36-.72-.54-2.64-.6-5.82A1.176,1.176,0,0,0,27.3,483.64Zm1.56-6.72a.88.88,0,0,0,.24,1.2c4.02,3.6,6.66,7.26,7.86,11.1.48,1.44,1.08,2.16,2.04,2.16,1.44,0,2.16-.84,2.16-2.58a7.915,7.915,0,0,0-2.28-4.98,34.93,34.93,0,0,0-8.82-7.02A.973.973,0,0,0,28.86,476.92Zm-31.14,1.02c-.42-.12-.78.12-.9.72-1.14,5.16-3.36,8.64-6.66,10.56a2.36,2.36,0,0,0-1.38,1.86,1.886,1.886,0,0,0,2.16,2.16c1.26,0,2.64-.78,4.02-2.58,2.16-2.82,3.3-6.72,3.48-11.7A.9.9,0,0,0-2.28,477.94Zm13.62-5.28c-.24.36-.12.72.3,1.14a20.484,20.484,0,0,1,6.18,8.16c.42,1.14,1.02,1.74,1.92,1.74,1.38,0,2.04-.72,2.04-2.28,0-2.88-3.06-5.88-9.18-8.94A.972.972,0,0,0,11.34,472.66ZM-9.12,452.98c-.78,0-1.08.36-.84.84a1.078,1.078,0,0,0,1.08.66H-.24v11.4c0,1.86.36,3,1.08,3.66.84.72,5.4,1.14,13.86,1.14,10.32,0,16.68-.18,19.14-.6.78-.12,1.2-.48,1.2-1.08,0-1.62-.78-2.46-2.34-2.46-.36,0-.72.06-.9.06a144.543,144.543,0,0,1-17.4.78,89.552,89.552,0,0,1-10.26-.3c-.6-.18-.96-.84-.96-1.98V454.48H39.12a1.049,1.049,0,0,0,.96-.42,1.066,1.066,0,0,0-.06-1.32,24.17,24.17,0,0,0-3-3.06.818.818,0,0,0-1.32.12l-2.52,3.18H16.56v-5.94c1.74-.6,2.58-1.14,2.58-1.62,0-.84-1.74-1.26-5.16-1.38-.6-.06-.96.24-.96.9v8.04ZM42.9,538.16a1.061,1.061,0,0,0-1.5-1.5c-1.26,1.62-4.02,3.12-7.08,3.84-2.82.72-4.98-.48-5.1-3.6a59.158,59.158,0,0,1,.66-6.3c.48-4.32,1.44-9.06.06-13.38a5.856,5.856,0,0,0-6.12-4.02,10.872,10.872,0,0,0-5.76,1.98c-4.56,3.18-6.96,5.64-10.08,8.16a.18.18,0,0,1-.3-.12V503.9a1.712,1.712,0,1,0-3.42,0v22.26a.505.505,0,0,1-.24.42c-2.94,2.64-5.16,4.68-7.56,7.14a.338.338,0,0,1-.54-.36c1.68-3.06,3.42-6.18,4.86-9.42a14.332,14.332,0,0,0,1.5-6.9A5.988,5.988,0,0,0-2.1,511.7a17.539,17.539,0,0,0-6.48-.36c-1.98.24-1.56,3.12.36,3.06,2.7-.06,7.68-.48,7.98,2.88a12.189,12.189,0,0,1-1.14,5.76,102.184,102.184,0,0,1-7.8,14.94c-.54.9-1.5,2.1-.54,3.12a1.457,1.457,0,0,0,2.1-.12c4.02-4.08,7.44-7.5,11.46-11.28.18-.12.42-.06.42.12v18.24a1.712,1.712,0,1,0,3.42,0V526.88a.648.648,0,0,1,.18-.42,75.979,75.979,0,0,1,11.22-9.3c2.22-1.5,6.66-2.7,7.56,1.08.72,3.54-.24,7.38-.78,12.06a43.036,43.036,0,0,0-.54,6.78c.24,5.1,4.74,7.62,9.72,6.18A15.539,15.539,0,0,0,42.9,538.16Z" transform="translate(330 170)" fill="#707070"/>
  </g>
</svg>
