<svg xmlns="http://www.w3.org/2000/svg" width="87.498" height="504.834" viewBox="0 0 87.498 504.834">
  <g id="グループ_32" data-name="グループ 32" transform="translate(-55.301 -2.816)">
    <path id="パス_4130" data-name="パス 4130" d="M34.21,13.31a10.046,10.046,0,0,0-3.99-1.77,10.634,10.634,0,0,0-1.41-.21,15.949,15.949,0,0,0-4.14.09.129.129,0,0,1-.12-.12V8.57a.11.11,0,0,1,.12-.12h2.07c3.24,0,4.23-2.07,4.26-2.16.36-.75-.75-1.2-1.11-.51-.03.06-.75,1.44-3.15,1.44H24.7c-.09,0-.12-.06-.12-.15V4.58a.841.841,0,0,0-1.68,0V7.07a.142.142,0,0,1-.15.15H17.71a.615.615,0,1,0,0,1.23h5.04a.137.137,0,0,1,.15.12v3.09c0,.06-.06.15-.12.15-2.67.84-5.37,1.98-7.08,4.38-1.83,2.55-1.44,4.68.18,5.73a4.392,4.392,0,0,0,3.09.39,10.912,10.912,0,0,0,3.96-1.77c.06-.03.15,0,.15.06a4.367,4.367,0,0,0,.96,2.19c.54.81,1.71-.06,1.23-.9v-.03a3.822,3.822,0,0,1-.66-2.22,1.345,1.345,0,0,0-.03-.33.272.272,0,0,1,.09-.21,14.766,14.766,0,0,0,3.57-6.48c.09-.15,0-.3.42-.3.45.12.87.18,1.29.3a7.868,7.868,0,0,1,3.18,1.8,4.876,4.876,0,0,1,1.32,3.9,5.818,5.818,0,0,1-.57,1.86,9.2,9.2,0,0,1-2.52,2.79,15.423,15.423,0,0,1-4.14,1.95c-.75.24-1.53.42-2.43.63l-.03.03c-.57.12-.45,1.11.18.96a24.353,24.353,0,0,0,2.61-.48,19.133,19.133,0,0,0,4.65-1.8,10.818,10.818,0,0,0,3.42-3.09,5.861,5.861,0,0,0,.87-2.61A6.234,6.234,0,0,0,34.21,13.31ZM18.73,20.69a2.541,2.541,0,0,1-1.92-.18c-1.08-.9-.96-2.25-.06-3.6a11.625,11.625,0,0,1,6.03-4.11c.06-.03.12.03.12.09v5.7c0,.21-.21.3-.36.45A9.513,9.513,0,0,1,18.73,20.69Zm8.46-8.4a7.673,7.673,0,0,0-.27.78,17.9,17.9,0,0,1-2.22,4.02.084.084,0,0,1-.15-.06V12.5c0-.06.03-.15.12-.15a13.225,13.225,0,0,1,2.43-.15A.1.1,0,0,1,27.19,12.29Zm9.06,34.35a15.969,15.969,0,0,1-5.46-3.93c-.45-.54-1.23.12-.87.69a19.636,19.636,0,0,0,3.36,3.45.247.247,0,0,1-.15.45H32.08c-2.76,0-4.44.81-4.44,3.93v5.13a.129.129,0,0,1-.12.12,11.454,11.454,0,0,0-2.31-.18,6.477,6.477,0,0,0-3.75.93,2.458,2.458,0,0,0-1.08,2.16,2.573,2.573,0,0,0,1.5,1.98,7.677,7.677,0,0,0,2.1.63,7.879,7.879,0,0,0,2.22-.03,4.409,4.409,0,0,0,2.16-.99,2.91,2.91,0,0,0,.75-1.11,3.388,3.388,0,0,0,.27-1.23c.03-.09,0-.18.03-.27,0-.06.06-.09.09-.06a13.911,13.911,0,0,1,3.81,2.34,4.385,4.385,0,0,0,.48.36c.87.66,1.98-.96.96-1.59-.15-.09-.39-.27-.39-.27a22.956,22.956,0,0,0-4.83-2.19.2.2,0,0,1-.12-.15V51.23c0-1.83.54-2.91,2.7-2.91h3.78a.925.925,0,0,0,.27-.03.95.95,0,0,0,.57-.51A.894.894,0,0,0,36.25,46.64Zm-13.83-1.5c3.24,0,4.23-2.04,4.29-2.13.57-.75-.72-1.35-1.14-.54-.03.06-.72,1.44-3.15,1.44H21.16a.129.129,0,0,1-.12-.12c.12-1.59.18-2.91.18-3.81.06-1.26-1.98-1.26-1.86.03,0,.87,0,2.07-.09,3.78a.137.137,0,0,1-.15.12H14.83a.616.616,0,0,0,0,1.23h4.2c.06,0,.12.06.09.12a17.831,17.831,0,0,1-5.04,10.2c-.84.84.54,2.1,1.35,1.23,3.06-3.57,4.89-6.87,5.46-11.43a.137.137,0,0,1,.15-.12Zm5.1,14.07c-.18.72-.99,1.02-1.65,1.17a5.561,5.561,0,0,1-3.36-.27c-.51-.21-.81-.54-.84-.84a1.138,1.138,0,0,1,.51-1.05,5.725,5.725,0,0,1,3.06-.75,11,11,0,0,1,2.25.24c.06,0,.12.09.12.15A5.474,5.474,0,0,1,27.52,59.21ZM21.76,80.9c-.09,0-.12-.06-.12-.15.03-.9.09-1.8.09-2.7v-.96a1.006,1.006,0,0,0-2.01.03c0,.33.03.93.03.93,0,.9,0,1.8-.03,2.7a.142.142,0,0,1-.15.15H15.16a.54.54,0,1,0,0,1.08h4.38a.137.137,0,0,1,.12.15,27.374,27.374,0,0,1-.87,5.55,25.924,25.924,0,0,1-4.5,8.82l-.03.03c-.75.96.81,2.13,1.53,1.11A30.8,30.8,0,0,0,20.5,88.1a29.319,29.319,0,0,0,1.05-5.97.137.137,0,0,1,.12-.15h4.05a.54.54,0,0,0,0-1.08ZM35.38,95.6a.029.029,0,0,1-.03-.03h-.21c-1.56.03-5.01.27-6.42-.9-1.53-1.26-1.08-3.48-.06-4.86a23.414,23.414,0,0,1,5.46-4.89c.54-.39,1.59-1.05.75-1.83-1.71-1.68-4.32-2.07-6.6-2.13a.528.528,0,0,0-.09,1.05,9.3,9.3,0,0,1,4.92,1.86.481.481,0,0,1,0,.75c-.42.3-1.17.84-1.71,1.26-2.13,1.65-4.5,3.6-4.89,6.51a3.985,3.985,0,0,0,2.19,4.29,11.356,11.356,0,0,0,4.89.81,5.039,5.039,0,0,0,2.01-.15A.945.945,0,0,0,35.38,95.6Zm.93,27.57a10.126,10.126,0,0,0-2.52-5.94,9.612,9.612,0,0,0-6.06-2.94,13.648,13.648,0,0,0-6.81.84,11.683,11.683,0,0,0-6.57,6.3c-1.05,2.46-1.29,6.36,1.29,8.01,2.88,1.86,5.94-.63,7.5-3.03a17.2,17.2,0,0,0,2.55-8.37,20.738,20.738,0,0,0,.03-2.31v-.36a.129.129,0,0,1,.12-.12,8.238,8.238,0,0,1,1.71.15,8.27,8.27,0,0,1,5.04,2.85,8.706,8.706,0,0,1,1.77,5.01,9.085,9.085,0,0,1-1.17,4.59,8.872,8.872,0,0,1-2.91,2.88,14.969,14.969,0,0,1-5.94,1.98c-.63.06-.51,1.05.12.99A16.764,16.764,0,0,0,31,131.96a10.541,10.541,0,0,0,3.69-3.18,8.548,8.548,0,0,0,1.62-5.55Zm-11.85-7.44c-.03.51-.03,1.23-.12,2.19a16.511,16.511,0,0,1-2.16,6.78c-.96,1.56-2.61,3.81-4.74,3.45-2.16-.42-2.19-3.18-1.86-4.89a10.633,10.633,0,0,1,5.82-7.05,11.07,11.07,0,0,1,2.94-.87.129.129,0,0,1,.12.12Zm3.81,32.37a8.7,8.7,0,0,0,.63-1.41c.87-.15,1.29-.36,1.29-.57,0-.33-.72-.66-2.16-1.02-.33-.09-.54.03-.6.33a17.718,17.718,0,0,1-3.72,6.66c-.21.24-.27.42-.12.54a.435.435,0,0,0,.63.03,14.092,14.092,0,0,0,3.6-3.81h1.14a5.144,5.144,0,0,1,1.71,2.94c.09.72.39,1.08.87,1.08a.964.964,0,0,0,1.11-1.08c0-1.11-.81-2.07-2.43-2.94h7.23a.552.552,0,0,0,.48-.18.47.47,0,0,0-.06-.66,18.049,18.049,0,0,0-1.26-1.38.409.409,0,0,0-.66.06l-1.08,1.41Zm-11.16,0q.27-.54.63-1.44c.84-.15,1.26-.36,1.26-.6,0-.39-.75-.72-2.22-1.05-.33-.06-.54.06-.6.36a19.976,19.976,0,0,1-4.62,8.16c-.21.21-.27.39-.15.51a.448.448,0,0,0,.66.06,17.626,17.626,0,0,0,4.62-5.25h.54a5.434,5.434,0,0,1,1.65,3.03c.12.66.45,1.02.87,1.02a.968.968,0,0,0,1.05-1.11c0-1.05-.81-2.04-2.4-2.94h5.85a.585.585,0,0,0,.51-.21.471.471,0,0,0,0-.66,15.092,15.092,0,0,0-1.05-1.29.392.392,0,0,0-.66.03l-1.08,1.38Zm-.87,14.07c.27-.87.6-2.07.96-3.57h7.05v3.57Zm9.75-4.32v-3.57h7.44v3.57Zm7.44,1.59c0,.33.15.48.45.48h.78a.417.417,0,0,0,.48-.48v-4.65l.78-.48a.363.363,0,0,0,.18-.27c0-.3-.48-.81-1.41-1.53a.48.48,0,0,0-.69.06l-.81.96H14.86c-.36,0-.54.15-.45.39a.525.525,0,0,0,.54.36h9.3v3.57H17.77c-.42-.24-.96-.51-1.53-.81-.33-.15-.57-.03-.6.3a43.1,43.1,0,0,1-1.95,6.84c-.09.3,0,.51.3.57l.84.24a.475.475,0,0,0,.6-.33c.18-.45.36-1.05.57-1.74h7.29a30.993,30.993,0,0,1-11.4,7.62c-.33.09-.45.3-.3.51a.57.57,0,0,0,.63.21,30.058,30.058,0,0,0,12.03-6.84v7.29a.4.4,0,0,0,.45.45h.84a.4.4,0,0,0,.45-.45v-8.79h9.12a14,14,0,0,1-.48,3.51,1.889,1.889,0,0,1-1.95,1.32,37.525,37.525,0,0,1-4.17-.27c-.33-.03-.51.06-.51.3a.458.458,0,0,0,.45.51,27.967,27.967,0,0,1,3,.63,1.553,1.553,0,0,1,1.02.84.525.525,0,0,0,.54.39,3.62,3.62,0,0,0,2.31-.96c.84-.84,1.35-2.76,1.5-5.76l.69-.39c.18-.12.3-.24.3-.36,0-.24-.48-.78-1.44-1.56a.421.421,0,0,0-.69.03l-.84,1.02H25.99V158.6h7.44ZM12.85,193.88c-.36,0-.51.18-.42.42a.478.478,0,0,0,.54.39H37a.507.507,0,0,0,.51-.24.54.54,0,0,0-.03-.66,25.455,25.455,0,0,0-1.8-1.8.41.41,0,0,0-.66.06l-1.53,1.83Zm23.46,37.29a10.126,10.126,0,0,0-2.52-5.94,9.612,9.612,0,0,0-6.06-2.94,13.648,13.648,0,0,0-6.81.84,11.683,11.683,0,0,0-6.57,6.3c-1.05,2.46-1.29,6.36,1.29,8.01,2.88,1.86,5.94-.63,7.5-3.03a17.2,17.2,0,0,0,2.55-8.37,20.738,20.738,0,0,0,.03-2.31v-.36a.129.129,0,0,1,.12-.12,8.239,8.239,0,0,1,1.71.15,8.27,8.27,0,0,1,5.04,2.85,8.706,8.706,0,0,1,1.77,5.01,9.085,9.085,0,0,1-1.17,4.59,8.872,8.872,0,0,1-2.91,2.88,14.969,14.969,0,0,1-5.94,1.98c-.63.06-.51,1.05.12.99A16.764,16.764,0,0,0,31,239.96a10.541,10.541,0,0,0,3.69-3.18,8.548,8.548,0,0,0,1.62-5.55Zm-11.85-7.44c-.03.51-.03,1.23-.12,2.19a16.511,16.511,0,0,1-2.16,6.78c-.96,1.56-2.61,3.81-4.74,3.45-2.16-.42-2.19-3.18-1.86-4.89a10.632,10.632,0,0,1,5.82-7.05,11.07,11.07,0,0,1,2.94-.87.129.129,0,0,1,.12.12Zm-7.83,55.95a.442.442,0,0,0,.48.48h.75a.42.42,0,0,0,.45-.48V264.83a12.282,12.282,0,0,1,2.79,4.23c.24.69.57,1.05.99,1.05.66,0,1.02-.36,1.02-1.08,0-1.59-1.62-3.3-4.8-5.13v-3.27h4.74a.531.531,0,0,0,.51-.24.542.542,0,0,0-.06-.63,13.924,13.924,0,0,0-1.26-1.5.37.37,0,0,0-.66.03l-1.08,1.59H18.31v-5.07c.84-.33,1.23-.6,1.23-.84,0-.36-.78-.57-2.4-.66a.418.418,0,0,0-.51.45v6.12H12.1c-.36,0-.54.15-.45.39a.549.549,0,0,0,.54.36h4.29l-.09.36a40.877,40.877,0,0,1-4.98,12.33c-.15.27-.15.45.03.6.24.21.45.18.66-.09a32.344,32.344,0,0,0,4.53-8.43Zm9.99-2.52v-6.72h8.46v6.72Zm0-14.43v-6.09h8.46v6.09Zm8.46,6.96H26.62v-6.18h8.46Zm-8.19-13.8a16.013,16.013,0,0,0-1.5-.69c-.33-.15-.54,0-.54.36v24.03a.428.428,0,0,0,.48.48h.84a.42.42,0,0,0,.45-.48v-1.68h8.46v1.68a.428.428,0,0,0,.48.48h.78a.428.428,0,0,0,.48-.48V257.24l.81-.6a.363.363,0,0,0,.18-.27c0-.24-.45-.78-1.44-1.62a.408.408,0,0,0-.66.06l-.87,1.08Zm-4.41,40.2c.27,0,.42-.06.48-.21a.5.5,0,0,0-.06-.63,17.69,17.69,0,0,0-1.29-1.38.406.406,0,0,0-.66.03l-1.2,1.44H11.98c-.33,0-.51.15-.45.36a.517.517,0,0,0,.54.39Zm-1.44,7.5a.6.6,0,0,0,.51-.24.471.471,0,0,0,0-.66,14.2,14.2,0,0,0-1.14-1.23c-.24-.24-.48-.24-.66.03l-1.11,1.35H13.42c-.33,0-.51.15-.42.36a.5.5,0,0,0,.54.39Zm-.15-11.28a.5.5,0,0,0,.48-.21.462.462,0,0,0-.06-.63,9.741,9.741,0,0,0-1.23-1.32.4.4,0,0,0-.66.06l-1.11,1.35H13.9c-.33,0-.51.12-.45.36a.514.514,0,0,0,.51.39Zm.21,7.53a.552.552,0,0,0,.48-.18.5.5,0,0,0-.03-.66,15.167,15.167,0,0,0-1.17-1.29c-.24-.24-.48-.24-.66.03l-1.11,1.35H13.42c-.33,0-.51.15-.42.36a.5.5,0,0,0,.54.39Zm2.34,10.8c.54,0,1.08-.39,1.62-1.2a10.176,10.176,0,0,0,1.29-4.77.44.44,0,0,0-.27-.51c-.3-.06-.48.06-.54.39a6.657,6.657,0,0,1-2.31,4.02c-.54.42-.81.75-.81,1.02A.915.915,0,0,0,23.44,310.64Zm.51-12.3c.51,0,.99-.39,1.41-1.11a7.544,7.544,0,0,0,.84-3.75,6.376,6.376,0,0,0-.06-.99c-.03-.3-.12-.42-.24-.45a.418.418,0,0,0-.54.42,5.934,5.934,0,0,1-1.74,3.9c-.45.39-.66.72-.66,1.02A.866.866,0,0,0,23.95,298.34Zm-9.24,9.09h4.41v6.06H14.71Zm4.41,6.81v.99a.42.42,0,0,0,.45.48h.72a.428.428,0,0,0,.48-.48V308l.66-.48a.454.454,0,0,0,.21-.33c0-.27-.45-.75-1.35-1.5a.392.392,0,0,0-.66.03l-.75.96H15.04c-.45-.24-.93-.51-1.44-.75-.36-.15-.57,0-.57.36v9.39a.428.428,0,0,0,.48.48h.75a.42.42,0,0,0,.45-.48v-1.44Zm12.63-17.97a7.065,7.065,0,0,1-1.32-2.94v-2.55c.72-.27,1.08-.54,1.08-.78q0-.54-2.25-.72a.418.418,0,0,0-.51.45v3.99c0,4.2-2.07,7.35-6.18,9.48-.27.18-.39.33-.27.51a.494.494,0,0,0,.63.21c4.5-1.65,6.96-4.53,7.41-8.7.81,2.76,2.94,5.19,6.36,7.29a.457.457,0,0,0,.66-.15,5.267,5.267,0,0,1,.72-.9c.24-.27.21-.51-.12-.63a16.676,16.676,0,0,1-5.79-4.02,26.434,26.434,0,0,0,3.84-3.69,2.425,2.425,0,0,0,.48.03c.57,0,.84-.09.84-.33,0-.3-.57-.84-1.74-1.65a.39.39,0,0,0-.66.15A34.33,34.33,0,0,1,31.75,296.27Zm-.33,12.72a9.2,9.2,0,0,1-1.05-4.47v-2.34c.75-.27,1.11-.51,1.11-.75,0-.36-.78-.57-2.28-.69a.418.418,0,0,0-.51.45v3.99a11.564,11.564,0,0,1-1.11,5.22,11.322,11.322,0,0,1-5.67,4.98q-.45.225-.27.54a.494.494,0,0,0,.63.21c4.53-1.59,7.14-4.38,7.89-8.37a10.3,10.3,0,0,0,2.07,4.47A12.851,12.851,0,0,0,37,315.56a.461.461,0,0,0,.66-.21,10.2,10.2,0,0,1,.69-.9c.27-.27.21-.48-.15-.6-2.97-1.05-5.07-2.43-6.33-4.2a28.407,28.407,0,0,0,4.44-3.96c.81,0,1.2-.12,1.2-.36,0-.33-.57-.84-1.68-1.53a.439.439,0,0,0-.66.18A28.345,28.345,0,0,1,31.42,308.99ZM16.63,351.68a.442.442,0,0,0,.48.48h.75a.42.42,0,0,0,.45-.48V336.83a12.282,12.282,0,0,1,2.79,4.23c.24.69.57,1.05.99,1.05.66,0,1.02-.36,1.02-1.08,0-1.59-1.62-3.3-4.8-5.13v-3.27h4.74a.531.531,0,0,0,.51-.24.542.542,0,0,0-.06-.63,13.924,13.924,0,0,0-1.26-1.5.37.37,0,0,0-.66.03l-1.08,1.59H18.31v-5.07c.84-.33,1.23-.6,1.23-.84,0-.36-.78-.57-2.4-.66a.418.418,0,0,0-.51.45v6.12H12.1c-.36,0-.54.15-.45.39a.549.549,0,0,0,.54.36h4.29l-.09.36a40.877,40.877,0,0,1-4.98,12.33c-.15.27-.15.45.03.6.24.21.45.18.66-.09a32.344,32.344,0,0,0,4.53-8.43Zm9.99-2.52v-6.72h8.46v6.72Zm0-14.43v-6.09h8.46v6.09Zm8.46,6.96H26.62v-6.18h8.46Zm-8.19-13.8a16.005,16.005,0,0,0-1.5-.69c-.33-.15-.54,0-.54.36v24.03a.428.428,0,0,0,.48.48h.84a.42.42,0,0,0,.45-.48v-1.68h8.46v1.68a.428.428,0,0,0,.48.48h.78a.428.428,0,0,0,.48-.48V329.24l.81-.6a.363.363,0,0,0,.18-.27c0-.24-.45-.78-1.44-1.62a.408.408,0,0,0-.66.06l-.87,1.08Zm9.06,43.77a.523.523,0,0,0,.54-.27.547.547,0,0,0-.09-.66c-.51-.6-1.02-1.14-1.47-1.62a.408.408,0,0,0-.66.06l-1.32,1.74H26.02V365.3c2.22-.3,4.35-.72,6.39-1.2a10.358,10.358,0,0,0,1.2.15c.45,0,.66-.09.66-.3,0-.36-.63-.93-1.89-1.68a.684.684,0,0,0-.63-.06,78.568,78.568,0,0,1-17.37,3.6c-.33.03-.48.21-.39.42a.516.516,0,0,0,.57.36c3.75-.3,6.96-.63,9.63-1.02v5.34H13.9c-.33,0-.51.15-.42.39a.513.513,0,0,0,.54.36H24.19v5.22h-12c-.33,0-.51.15-.42.39a.549.549,0,0,0,.54.36H24.19v6.39c0,.66-.36.96-1.11.96-1.26,0-2.79-.09-4.56-.27-.33-.03-.51.06-.51.33a.474.474,0,0,0,.45.51,25.478,25.478,0,0,1,2.97.63,1.678,1.678,0,0,1,1.14,1.05c.09.27.21.42.51.42,1.95-.06,2.94-.81,2.94-2.19v-7.83H37.81a.606.606,0,0,0,.54-.27.5.5,0,0,0-.03-.66,15.008,15.008,0,0,0-1.65-1.77.409.409,0,0,0-.66.06l-1.38,1.89H26.02v-5.22Z" transform="translate(44 120)" fill="#707070"/>
    <path id="パス_4129" data-name="パス 4129" d="M25.6,37.4a.622.622,0,0,0,.8.24,26.94,26.94,0,0,0,8.56-4.4,3.036,3.036,0,0,0,.64.04c.76,0,1.12-.12,1.12-.48,0-.44-.76-1.04-2.28-1.84a.734.734,0,0,0-.92.16,22.927,22.927,0,0,1-7.6,5.56C25.52,36.88,25.4,37.16,25.6,37.4ZM12.68,5.48c-.48,0-.72.2-.56.52a.7.7,0,0,0,.72.48H27.72c.36,0,.6-.12.68-.36a.787.787,0,0,0-.08-.88C27.72,4.6,27.2,4,26.68,3.48a.544.544,0,0,0-.88.08L24.36,5.48ZM39.2,31.16c-.16.24-.04.52.36.68a18.812,18.812,0,0,1,5.96,4.32c.6.68,1.12,1.04,1.48,1.04.84,0,1.28-.48,1.28-1.44,0-.6-.52-1.28-1.6-2.04A21.757,21.757,0,0,0,40,30.88.683.683,0,0,0,39.2,31.16ZM14.4,24.32c-.24.2-.2.48.04.8a9.08,9.08,0,0,1,1.96,4.56c.08,1.12.48,1.64,1.12,1.64.96,0,1.44-.52,1.44-1.6,0-1.84-1.28-3.64-3.76-5.4A.6.6,0,0,0,14.4,24.32Zm6.72,7.16c-2.8.64-5.6,1.2-8.52,1.64a.534.534,0,0,0-.48.76c.6,1.96,1.12,2.92,1.6,2.92.32,0,.56-.48.76-1.52A138.573,138.573,0,0,0,28.36,30.6q.48-.24.48-.6c-.08-.48-.36-.64-.76-.48-2.08.68-3.92,1.24-5.48,1.6a45.285,45.285,0,0,0,2.72-5.24c1-.04,1.52-.24,1.52-.6,0-.52-.92-1.12-2.68-1.76-.44-.16-.76,0-.84.44A51.272,51.272,0,0,1,21.12,31.48Zm3.24-18.6v7.04H16.2V12.88Zm-7.88-1a18.629,18.629,0,0,0-1.8-.88c-.44-.2-.72,0-.72.48v11a.53.53,0,0,0,.6.6h1a.56.56,0,0,0,.64-.6V20.92h8.16v1.2a.571.571,0,0,0,.64.64h1a.571.571,0,0,0,.64-.64v-8.6l.84-.6a.632.632,0,0,0,.32-.48c0-.28-.6-.92-1.76-1.88a.561.561,0,0,0-.92.04l-1,1.28ZM33.04,17.4H43.32v4.72H33.04Zm0,5.72H43.32V28.2H33.04ZM43.32,12.24V16.4H33.04V12.24Zm-9.92-1c-.64-.36-1.28-.64-1.88-.92-.44-.2-.72.04-.72.52V30.08c0,.44.2.64.6.64h1a.571.571,0,0,0,.64-.64V29.2H43.32V30a.53.53,0,0,0,.6.6h1a.56.56,0,0,0,.64-.6V12.96l1-.68a.564.564,0,0,0,.32-.48c0-.32-.64-1-1.96-2.04a.544.544,0,0,0-.88.08l-1.08,1.4H37.12a44.306,44.306,0,0,0,2.76-5.12h7.44c.36,0,.56-.08.64-.28A.62.62,0,0,0,47.88,5a17.885,17.885,0,0,0-1.84-2,.529.529,0,0,0-.88.12l-1.6,2H30.28c-.48,0-.72.2-.56.52a.732.732,0,0,0,.72.48h6.28a40.527,40.527,0,0,1-.88,5.12ZM12.56,58.16c-.24.2-.24.48-.04.8a15.877,15.877,0,0,1,1.88,5.8c.08.84.48,1.28,1.12,1.28,1.04,0,1.56-.56,1.56-1.72,0-1.92-1.24-3.96-3.72-6.08C13.04,57.96,12.76,57.96,12.56,58.16ZM21,55.48a13.48,13.48,0,0,0-1.96-.92c-.44-.2-.72,0-.72.48v11.8c0,.44-.04,1-.08,1.6a36.787,36.787,0,0,1-6.52,3.72.59.59,0,0,0-.28.88c.76,1.68,1.32,2.56,1.76,2.56.32,0,.56-.56.68-1.68A28.554,28.554,0,0,0,17.8,70.4l.36-.36c-.52,6.12-2.32,11.04-5.52,14.72-.28.32-.28.6-.08.8.32.24.6.28.88,0,4.8-4.04,7.16-9.96,7.16-17.84V56.48H47a.7.7,0,0,0,.64-.28.73.73,0,0,0-.12-.88,22.666,22.666,0,0,0-1.84-1.96.509.509,0,0,0-.88.08l-1.64,2.04H33.04v-3.4c1.12-.36,1.64-.72,1.64-1.04,0-.48-1.08-.8-3.2-.96-.48-.04-.68.2-.68.6v4.8ZM32.8,76.32H25.88V72.08H32.8Zm2.24-5.24v-4h7.6v4Zm0,5.24V72.08h7.6v4.24ZM32.8,67.08v4H25.88v-4Zm3.08-1a1.194,1.194,0,0,0,.4-.88c0-.48-.32-.92-.96-1.36a59.083,59.083,0,0,0,6.2-2.8l1.24-.24c.4-.08.6-.24.6-.44,0-.32-.76-1.04-2.2-2.2a.64.64,0,0,0-.92.04L39.2,59.24H24.88c-.48,0-.72.24-.56.56a.752.752,0,0,0,.76.44H38.92a24.911,24.911,0,0,1-4.68,2.96,22.085,22.085,0,0,0-5.08-1.44c-.36-.08-.6-.04-.64.08a.538.538,0,0,0,.28.84,14.772,14.772,0,0,1,5.12,3l.4.4H26.24c-.76-.36-1.4-.6-1.88-.8-.44-.16-.72.08-.72.52V85.24a.589.589,0,0,0,.64.64h1a.56.56,0,0,0,.6-.64V77.32H32.8v6.92a.56.56,0,0,0,.64.6h1a.53.53,0,0,0,.6-.6V77.32h7.6V81.2q0,1.08-1.2,1.08c-1.08,0-2.32-.08-3.72-.2-.44-.04-.68.08-.68.4a.6.6,0,0,0,.6.64,20.455,20.455,0,0,1,2.4.6,1.6,1.6,0,0,1,1.12,1.08c.12.36.32.6.68.56,2.04-.12,3.04-1.16,3.04-3.12V67.8l1-.64a.561.561,0,0,0,.32-.44c0-.28-.6-.92-1.92-1.92a.594.594,0,0,0-.88.08l-1.04,1.2ZM30,112.92a2.754,2.754,0,0,0-1.64.52,2.722,2.722,0,0,0-1.24,2.36,2.885,2.885,0,0,0,1.04,2.2,2.751,2.751,0,0,0,1.84.68,2.809,2.809,0,0,0,2.48-1.36,2.983,2.983,0,0,0,.4-1.52,2.718,2.718,0,0,0-.8-1.96A2.856,2.856,0,0,0,30,112.92Zm-2.08,45.8a23.479,23.479,0,0,1-3.32,8.8.179.179,0,0,1-.2,0,19.321,19.321,0,0,1-2.8-4.8.247.247,0,0,1,.08-.28,22,22,0,0,1,6.04-3.88C27.84,158.56,27.92,158.6,27.92,158.72Zm-4.84,10.6a9.361,9.361,0,0,1-3.64,2.56c-2.2.68-3.28-.52-2.32-2.96a14.84,14.84,0,0,1,2.84-4.68c.04-.08.16-.04.24.04a23.507,23.507,0,0,0,2.88,4.8A.255.255,0,0,1,23.08,169.32Zm22.56-5.96a9.807,9.807,0,0,0-5.2-6.4,14.687,14.687,0,0,0-9.88-.72c-.08,0-.16-.04-.12-.12a1.947,1.947,0,0,1,.04-.48c.12-1.32.2-2.6.2-4.04,0-1.64-2.72-1.52-2.56.16.04.32.08.96.08.96a17.113,17.113,0,0,1-.08,4.04.27.27,0,0,1-.16.24,23.469,23.469,0,0,0-6.88,3.72c-.08.08-.16.04-.2-.04-.32-1.08-.56-2.2-.84-3.36v-.04a1,1,0,0,0-1.96.44,30.791,30.791,0,0,0,1.2,4.28.338.338,0,0,1-.08.28c-2.12,2.16-4.28,4.88-4.72,8.08-.2,3.32,2.8,4.2,5.56,3.12a9.614,9.614,0,0,0,4.08-2.92.328.328,0,0,1,.28,0,16.655,16.655,0,0,0,3,2.56,1,1,0,0,0,1.16-1.64,18.925,18.925,0,0,1-2.84-2.44c-.08-.04-.08-.16,0-.24a24.478,24.478,0,0,0,4.48-10.88.183.183,0,0,1,.16-.2,12.031,12.031,0,0,1,9.08.96A8.167,8.167,0,0,1,43.16,164a11.637,11.637,0,0,1-.44,5.88c-1.32,4.16-5.04,6.88-9.32,8.6l-.04.04c-.76.28-.28,1.56.52,1.28,4.52-1.64,9.04-4.32,11.2-9.08A11.292,11.292,0,0,0,45.64,163.36Zm-7.68,47.6c4.32,0,5.64-2.76,5.68-2.84a.823.823,0,0,0-1.48-.72c-.04.08-1,1.92-4.2,1.92H33.28a.183.183,0,0,1-.2-.16V197.6a1.2,1.2,0,1,0-2.4.04V209.2a.172.172,0,0,1-.16.16H24.08a.2.2,0,0,1-.04-.4c1.96-.84,4.4-1.84,4.76-4.68.8-5-6.92-4.72-9.72-4.44-1.16.12-1.04,2.08.12,2,1.32-.08,8.32-.8,7.96,2.28-.28,2.96-5.84,4.64-7.92,5.16a.843.843,0,0,0,.08,1.68h11.2a.172.172,0,0,1,.16.16v8.64c0,.08-.08.16-.16.12-3.24-.48-6.6-.92-9.4.24-1.84.8-3.36,2.4-2.64,4.56.6,1.72,2.48,2.48,4.12,2.88a11.543,11.543,0,0,0,3.32.28c2.32-.08,5.36-.56,6.56-3a5.806,5.806,0,0,0,.56-2.36c0-.08.12-.12.2-.08a35.642,35.642,0,0,1,7.24,3.64c1.52.76,2.76-1.56,1.24-2.32a30.123,30.123,0,0,0-8.48-3.2.266.266,0,0,1-.16-.2v-9.2a.183.183,0,0,1,.2-.16Zm-7.6,12.88c-.72,1.52-2.92,2.04-4.52,2.16-1.88.16-4.04-.12-5.32-1.16-1.08-.92-.56-2.4.52-3.08a6.6,6.6,0,0,1,3.4-.84,25.227,25.227,0,0,1,6.04.76c.12,0,.16.08.16.2A5.642,5.642,0,0,1,30.36,223.84Zm15.68,42.2c0-4.2-2.48-11.32-7.64-12.2-4.08-.68-7.76,2.04-9.72,5.56a47.96,47.96,0,0,0-3.56,8.2c-.2.6-.64,1.92-1.36,2.04-1,.12-1.96-1.16-2.44-1.84-2.16-3.04-2.28-7-2.28-10.6,0-1.52.36-3.44-.56-4.8-.8-1.12-2.12-1.28-3.4-1.28a.76.76,0,0,0,0,1.52c1.32-.12,1.36,1.24,1.36,2.16.04,3.48-.12,7,.92,10.36.72,2.28,3.6,7.96,6.8,6.8,1.16-.4,1.72-1.68,2.08-2.72.56-1.48,1-3,1.52-4.52,1.2-3.48,2.76-7.12,6.04-8.64a5.789,5.789,0,0,1,7.48,2.16c1.56,2.32,1.56,5.32,1.76,8.04A1.505,1.505,0,0,0,46.04,266.04ZM30,304.92a2.754,2.754,0,0,0-1.64.52,2.722,2.722,0,0,0-1.24,2.36,2.885,2.885,0,0,0,1.04,2.2,2.751,2.751,0,0,0,1.84.68,2.809,2.809,0,0,0,2.48-1.36,2.983,2.983,0,0,0,.4-1.52,2.718,2.718,0,0,0-.8-1.96A2.856,2.856,0,0,0,30,304.92ZM25.88,348.4a.736.736,0,0,0,.64-.24.72.72,0,0,0,0-.88c-.48-.68-.92-1.28-1.4-1.88a.494.494,0,0,0-.88.04l-1.32,1.96H20.84v-7.32c1.04-.44,1.56-.8,1.56-1.16,0-.48-1.08-.8-3.2-.88a.543.543,0,0,0-.64.6v8.76H15.52c.24-1.32.4-3.04.56-5.16.88-.32,1.32-.6,1.32-.92,0-.48-.96-.8-2.92-.96a.558.558,0,0,0-.68.6,61.04,61.04,0,0,1-1.84,15.12c-.12.36-.04.6.2.72a.591.591,0,0,0,.8-.36,36.551,36.551,0,0,0,2.4-8.04h3.2v10.08c-2,.48-4.08.88-6.2,1.24a.516.516,0,0,0-.48.76q.84,2.76,1.56,2.76c.32,0,.56-.48.68-1.44q2.1-.6,4.32-1.32v12.8c0,.4.2.6.64.6h1c.44,0,.64-.2.64-.6v-13.6l.24-.12q2.1-.78,5.64-2.16c.36-.16.52-.36.48-.56a.539.539,0,0,0-.76-.48c-1.56.48-3.36,1.04-5.48,1.56V348.4Zm17.96-1.16c-.04,10.72-.6,17.84-1.68,21.32a2.547,2.547,0,0,1-2.76,1.76,42.143,42.143,0,0,1-5.04-.4c-.44-.08-.68.08-.68.4a.653.653,0,0,0,.56.68,19.032,19.032,0,0,1,3.64.92,1.944,1.944,0,0,1,1.24,1.12c.12.4.28.6.68.56a4.406,4.406,0,0,0,4.32-2.96q1.92-5.1,1.96-22.64l.92-.52c.28-.16.44-.36.44-.56q0-.6-1.92-2.16a.566.566,0,0,0-.92.12l-1.04,1.36H30.48a43.8,43.8,0,0,0,1.92-5.96c1-.24,1.52-.52,1.52-.84,0-.52-1-.96-3.04-1.4a.6.6,0,0,0-.76.52,40.384,40.384,0,0,1-5.76,16.08c-.2.36-.2.6.04.76a.562.562,0,0,0,.84-.16,32.131,32.131,0,0,0,4.84-8h3.24a30.844,30.844,0,0,1-9.36,16.56c-.32.32-.4.52-.2.72a.569.569,0,0,0,.88.08,28.76,28.76,0,0,0,11-17.36h3.04q-2.28,15.96-13.4,24.32c-.36.28-.44.52-.24.76a.6.6,0,0,0,.88.08A30.381,30.381,0,0,0,37.6,359.52a44.387,44.387,0,0,0,3.36-12.28ZM38.2,412.76c-.32-.12-.56.12-.6.56-.36,2.88-.92,4.48-1.56,4.76q-.78.36-6,.36a21.5,21.5,0,0,1-4.32-.24,1.21,1.21,0,0,1-.8-1.32v-7.04c1.12-.4,1.68-.8,1.68-1.12,0-.52-1.08-.84-3.24-1a.558.558,0,0,0-.68.6v9.36c0,1.24.32,2.04,1,2.4.6.32,2.84.48,6.76.48a59.174,59.174,0,0,0,7.92-.28,2.007,2.007,0,0,0,1.84-1.64c.08-.4-.16-.56-.52-.72a.964.964,0,0,1-.56-.56,12.572,12.572,0,0,1-.4-3.88A.784.784,0,0,0,38.2,412.76Zm1.04-4.48a.587.587,0,0,0,.16.8,17.051,17.051,0,0,1,5.24,7.4c.32.96.72,1.44,1.36,1.44.96,0,1.44-.56,1.44-1.72a5.277,5.277,0,0,0-1.52-3.32,23.287,23.287,0,0,0-5.88-4.68A.649.649,0,0,0,39.24,408.28Zm-20.76.68c-.28-.08-.52.08-.6.48-.76,3.44-2.24,5.76-4.44,7.04a1.573,1.573,0,0,0-.92,1.24,1.257,1.257,0,0,0,1.44,1.44,3.589,3.589,0,0,0,2.68-1.72c1.44-1.88,2.2-4.48,2.32-7.8A.6.6,0,0,0,18.48,408.96Zm9.08-3.52c-.16.24-.08.48.2.76a13.656,13.656,0,0,1,4.12,5.44c.28.76.68,1.16,1.28,1.16.92,0,1.36-.48,1.36-1.52,0-1.92-2.04-3.92-6.12-5.96A.648.648,0,0,0,27.56,405.44ZM13.92,392.32c-.52,0-.72.24-.56.56a.719.719,0,0,0,.72.44h5.76v7.6a3.17,3.17,0,0,0,.72,2.44c.56.48,3.6.76,9.24.76a110.9,110.9,0,0,0,12.76-.4c.52-.08.8-.32.8-.72,0-1.08-.52-1.64-1.56-1.64-.24,0-.48.04-.6.04a96.356,96.356,0,0,1-11.6.52,59.707,59.707,0,0,1-6.84-.2c-.4-.12-.64-.56-.64-1.32v-7.08H46.08a.7.7,0,0,0,.64-.28.711.711,0,0,0-.04-.88,16.112,16.112,0,0,0-2-2.04.546.546,0,0,0-.88.08l-1.68,2.12H31.04v-3.96c1.16-.4,1.72-.76,1.72-1.08,0-.56-1.16-.84-3.44-.92-.4-.04-.64.16-.64.6v5.36ZM48.6,460.44a.707.707,0,0,0-1-1A8.851,8.851,0,0,1,42.88,462c-1.88.48-3.32-.32-3.4-2.4a39.438,39.438,0,0,1,.44-4.2c.32-2.88.96-6.04.04-8.92a3.9,3.9,0,0,0-4.08-2.68,7.248,7.248,0,0,0-3.84,1.32c-3.04,2.12-4.64,3.76-6.72,5.44a.12.12,0,0,1-.2-.08V437.6a1.141,1.141,0,1,0-2.28,0v14.84a.337.337,0,0,1-.16.28c-1.96,1.76-3.44,3.12-5.04,4.76a.225.225,0,0,1-.36-.24c1.12-2.04,2.28-4.12,3.24-6.28a9.555,9.555,0,0,0,1-4.6,3.992,3.992,0,0,0-2.92-3.56,11.693,11.693,0,0,0-4.32-.24c-1.32.16-1.04,2.08.24,2.04,1.8-.04,5.12-.32,5.32,1.92a8.126,8.126,0,0,1-.76,3.84,68.123,68.123,0,0,1-5.2,9.96c-.36.6-1,1.4-.36,2.08a.972.972,0,0,0,1.4-.08c2.68-2.72,4.96-5,7.64-7.52.12-.08.28-.04.28.08v12.16a1.141,1.141,0,1,0,2.28,0V452.92a.432.432,0,0,1,.12-.28,50.651,50.651,0,0,1,7.48-6.2c1.48-1,4.44-1.8,5.04.72.48,2.36-.16,4.92-.52,8.04a28.691,28.691,0,0,0-.36,4.52c.16,3.4,3.16,5.08,6.48,4.12A10.36,10.36,0,0,0,48.6,460.44Z" transform="translate(94)" fill="#707070"/>
  </g>
</svg>
